<svg width="17" height="26" viewBox="0 0 17 26" fill="none" xmlns="http://www.w3.org/2000/svg">
<path d="M17 8.66667C17 13.4531 13.1944 17.3333 8.5 17.3333C3.80558 17.3333 0 13.4531 0 8.66667C0 3.8802 3.80558 0 8.5 0C13.1944 0 17 3.8802 17 8.66667Z" fill="black"/>
<path d="M8.5 26L1.13878 13.197L15.8612 13.197L8.5 26Z" fill="black"/>
<path d="M12.9526 8.53125C12.9526 10.9993 10.9592 13 8.50023 13C6.04125 13 4.04785 10.9993 4.04785 8.53125C4.04785 6.06323 6.04125 4.0625 8.50023 4.0625C10.9592 4.0625 12.9526 6.06323 12.9526 8.53125Z" fill="white"/>
</svg>
