<svg width="34" height="37" viewBox="0 0 34 37" fill="none" xmlns="http://www.w3.org/2000/svg">
<rect x="4.34033" y="2.1875" width="2.89362" height="16.7715" rx="1.44681" fill="black"/>
<ellipse cx="5.78743" cy="3.64597" rx="3.61702" ry="3.64597" fill="black"/>
<path fill-rule="evenodd" clip-rule="evenodd" d="M9 11.8086C4.02944 11.8086 0 15.838 0 20.8086V28.8991C0 31.1083 1.79086 32.8991 4 32.8991H7.01796C6.98937 32.7572 6.97436 32.6102 6.97436 32.4597C6.97436 31.2464 7.95015 30.2628 9.15385 30.2628C10.3575 30.2628 11.3333 31.2464 11.3333 32.4597C11.3333 32.6102 11.3183 32.7572 11.2897 32.8991H22.7103C22.6817 32.7572 22.6667 32.6102 22.6667 32.4597C22.6667 31.2464 23.6425 30.2628 24.8462 30.2628C26.0498 30.2628 27.0256 31.2464 27.0256 32.4597C27.0256 32.6102 27.0106 32.7572 26.982 32.8991H30C32.2091 32.8991 34 31.1083 34 28.8991V20.8086C34 20.4393 33.9778 20.0752 33.9345 19.7175H27.9044C27.4191 19.7175 27.0256 19.3241 27.0256 18.8387C27.0256 18.3534 27.4191 17.96 27.9044 17.96H33.5399C32.3481 14.3855 28.975 11.8086 25 11.8086H9Z" fill="black"/>
<path fill-rule="evenodd" clip-rule="evenodd" d="M9.15376 37C11.8019 37 13.9486 34.8361 13.9486 32.1667C13.9486 29.4974 11.8019 27.3335 9.15376 27.3335C6.50562 27.3335 4.35889 29.4974 4.35889 32.1667C4.35889 34.8361 6.50562 37 9.15376 37ZM9.15376 34.3637C10.3575 34.3637 11.3332 33.3801 11.3332 32.1667C11.3332 30.9534 10.3575 29.9698 9.15376 29.9698C7.95006 29.9698 6.97427 30.9534 6.97427 32.1667C6.97427 33.3801 7.95006 34.3637 9.15376 34.3637Z" fill="black"/>
<path fill-rule="evenodd" clip-rule="evenodd" d="M24.8461 37C27.4943 37 29.641 34.8361 29.641 32.1667C29.641 29.4974 27.4943 27.3335 24.8461 27.3335C22.198 27.3335 20.0513 29.4974 20.0513 32.1667C20.0513 34.8361 22.198 37 24.8461 37ZM24.8461 34.3637C26.0498 34.3637 27.0256 33.3801 27.0256 32.1667C27.0256 30.9534 26.0498 29.9698 24.8461 29.9698C23.6424 29.9698 22.6667 30.9534 22.6667 32.1667C22.6667 33.3801 23.6424 34.3637 24.8461 34.3637Z" fill="black"/>
</svg>
