<svg width="11" height="7" viewBox="0 0 52 23" fill="none" xmlns="http://www.w3.org/2000/svg">
<path d="M8.17387 12.8398C6.73704 15.1677 3.39014 15.1893 1.92411 12.88L1.06157 11.5213C0.791736 11.0963 0.609966 10.6204 0.52724 10.1224L0.0519413 7.26104C-0.326586 4.98229 1.41192 2.9061 3.69857 2.9061L6.39465 2.90611C8.70399 2.90611 10.4483 5.02145 10.0316 7.31671L9.51224 10.1775C9.42833 10.6398 9.25886 11.0819 9.01274 11.4806L8.17387 12.8398Z" fill="black"/>
<path d="M50.0805 12.8398C48.6437 15.1677 45.2968 15.1893 43.8307 12.88L42.9682 11.5213C42.6983 11.0963 42.5166 10.6204 42.4338 10.1224L41.9586 7.26104C41.58 4.98229 43.3185 2.9061 45.6052 2.9061L48.3013 2.90611C50.6106 2.90611 52.3549 5.02145 51.9382 7.31671L51.4189 10.1775C51.3349 10.6398 51.1655 11.0819 50.9194 11.4806L50.0805 12.8398Z" fill="black"/>
<path d="M38.7701 7.888C38.7701 14.5373 32.9758 19.9276 25.8283 19.9276C18.6808 19.9276 12.8866 14.5373 12.8866 7.888C12.8866 1.23873 18.6808 0 25.8283 0C32.9758 0 38.7701 1.23873 38.7701 7.888Z" fill="black"/>
<path d="M3.84788 6.64252H46.987V9.54863H3.84788V6.64252Z" fill="black"/>
<path d="M18.1324 13.8545C18.3454 13.0814 19.1384 12.6293 19.9034 12.8446C20.6685 13.0599 21.1159 13.8611 20.9029 14.6342L18.9188 21.8331C18.7057 22.6061 17.9128 23.0583 17.1478 22.843C16.3827 22.6277 15.9352 21.8265 16.1483 21.0534L18.1324 13.8545Z" fill="black"/>
<path d="M31.0236 14.7374C30.8105 13.9643 31.258 13.1631 32.0231 12.9478C32.7882 12.7326 33.5811 13.1848 33.7941 13.9578L35.7779 21.1568C35.9909 21.9299 35.5434 22.7311 34.7783 22.9464C34.0133 23.1616 33.2204 22.7094 33.0073 21.9364L31.0236 14.7374Z" fill="black"/>
</svg>
