<svg width="42" height="43" viewBox="0 0 42 43" fill="none" xmlns="http://www.w3.org/2000/svg">
<path d="M18.5 40.9166H4.20833C1.94208 40.9166 0.125 39.0791 0.125 36.8333L0.145417 8.24998C0.145417 6.00415 1.94208 4.16665 4.20833 4.16665H6.25V0.083313H10.3333V4.16665H26.6667V0.083313H30.75V4.16665H32.7917C35.0375 4.16665 36.875 6.00415 36.875 8.24998V20.5H32.7917V16.4166H4.20833V36.8333H18.5V40.9166ZM39.1821 30.6879L40.6317 29.2383C41.4279 28.4421 41.4279 27.1558 40.6317 26.3596L39.1821 24.91C38.3858 24.1137 37.0996 24.1137 36.3033 24.91L34.8537 26.3596L39.1821 30.6879ZM37.7325 32.1375L26.9117 42.9583H22.5833V38.63L33.4042 27.8091L37.7325 32.1375Z" fill="black"/>
</svg>
