<svg width="63" height="28" viewBox="0 0 63 28" fill="none" xmlns="http://www.w3.org/2000/svg">
<path d="M10.3183 15.9348C8.61841 18.6992 4.6587 18.7248 2.92424 15.9825L1.90377 14.3691C1.58453 13.8643 1.36948 13.2992 1.2716 12.7078L0.709279 9.30999C0.261444 6.60397 2.31827 4.1385 5.0236 4.1385L8.21333 4.1385C10.9455 4.1385 13.0092 6.65047 12.5162 9.37609L11.9017 12.7733C11.8025 13.3222 11.602 13.8472 11.3108 14.3208L10.3183 15.9348Z" fill="black"/>
<path d="M59.898 15.9348C58.1981 18.6992 54.2384 18.7248 52.5039 15.9825L51.4834 14.3691C51.1642 13.8643 50.9491 13.2992 50.8513 12.7078L50.2889 9.30999C49.8411 6.60397 51.8979 4.1385 54.6033 4.1385L57.793 4.1385C60.5252 4.1385 62.5889 6.65047 62.0959 9.37609L61.4814 12.7733C61.3821 13.3222 61.1816 13.8472 60.8905 14.3208L59.898 15.9348Z" fill="black"/>
<path d="M46.5166 10.0545C46.5166 17.9505 39.6615 24.3515 31.2053 24.3515C22.749 24.3515 15.8939 17.9505 15.8939 10.0545C15.8939 2.15849 22.749 0.6875 31.2053 0.6875C39.6615 0.6875 46.5166 2.15849 46.5166 10.0545Z" fill="black"/>
<path d="M5.20024 8.5755H56.2381V12.0265H5.20024V8.5755Z" fill="black"/>
<path d="M22.1002 17.1397C22.3523 16.2217 23.2904 15.6848 24.1955 15.9404C25.1007 16.1961 25.6301 17.1476 25.378 18.0656L23.0306 26.6143C22.7786 27.5323 21.8405 28.0692 20.9353 27.8136C20.0302 27.5579 19.5008 26.6064 19.7529 25.6884L22.1002 17.1397Z" fill="black"/>
<path d="M37.3518 18.1882C37.0997 17.2701 37.6292 16.3187 38.5343 16.063C39.4395 15.8074 40.3775 16.3444 40.6296 17.2624L42.9766 25.8112C43.2286 26.7292 42.6992 27.6807 41.794 27.9363C40.8889 28.192 39.9508 27.655 39.6988 26.7369L37.3518 18.1882Z" fill="black"/>
</svg>
