<?xml version="1.0" encoding="utf-8"?>
<svg viewBox="0 0 52 28" width="52" height="28" fill="none" xmlns="http://www.w3.org/2000/svg">
  <rect width="52" height="28" rx="14" fill="#65EECD"/>
  <rect width="7" height="10" rx="1" fill="white" x="14.395" y="12.153"/>
  <rect width="7" height="10" rx="1" fill="white" x="31.902" y="4.857"/>
  <path d="M 36.918 21.622 C 36.395 22.368 36.133 22.741 35.792 22.838 C 35.613 22.89 35.423 22.89 35.243 22.838 C 34.902 22.741 34.641 22.368 34.118 21.621 L 30.044 15.81 C 29.365 14.843 29.026 14.359 29.092 13.956 C 29.127 13.746 29.227 13.553 29.379 13.404 C 29.671 13.119 30.262 13.119 31.444 13.119 L 39.592 13.119 C 40.774 13.119 41.365 13.119 41.656 13.404 C 41.808 13.553 41.909 13.746 41.943 13.956 C 42.01 14.359 41.67 14.843 40.992 15.81 L 36.918 21.622 Z" fill="white"/>
  <path d="M 16.605 6.561 C 17.128 5.815 17.389 5.442 17.73 5.344 C 17.91 5.293 18.1 5.293 18.279 5.344 C 18.62 5.442 18.882 5.815 19.405 6.561 L 23.479 12.372 C 24.157 13.34 24.497 13.824 24.43 14.226 C 24.396 14.436 24.295 14.63 24.143 14.778 C 23.851 15.064 23.261 15.064 22.079 15.064 L 13.931 15.064 C 12.749 15.064 12.158 15.064 11.866 14.778 C 11.714 14.63 11.614 14.436 11.579 14.226 C 11.513 13.824 11.852 13.34 12.53 12.372 L 16.605 6.561 Z" fill="white"/>
</svg>