
<svg width="16" height="24" viewBox="0 0 16 24" fill="none" xmlns="http://www.w3.org/2000/svg">
  <path d="M14.7321 8.63203C14.7321 12.9276 11.503 16.4098 7.51963 16.4098C3.53628 16.4098 0.307129 12.9276 0.307129 8.63203C0.307129 4.33648 3.53628 0.854248 7.51963 0.854248C11.503 0.854248 14.7321 4.33648 14.7321 8.63203Z" fill="#040404"/>
  <path d="M7.51963 24.1876L1.27342 12.6977L13.7658 12.6977L7.51963 24.1876Z" fill="#040404"/>
  <path d="M 11.218 8.461 C 11.218 10.676 9.526 12.471 7.44 12.471 C 5.353 12.471 3.662 10.676 3.662 8.461 C 3.662 6.246 5.353 4.45 7.44 4.45 C 9.526 4.45 11.218 6.246 11.218 8.461 Z" fill="white"/>
</svg>


